<?xml version="1.0" encoding="UTF-8"?>
<svg id="Layer_1" data-name="Layer 1" xmlns="http://www.w3.org/2000/svg" viewBox="0 0 303.48 175.22">
  <defs>
    <style>
      .cls-1, .cls-2 {
        stroke-width: 0px;
      }

      .cls-2 {
        fill: none;
      }
    </style>
  </defs>
  <path class="cls-2" d="m131.83,113.22v-30.16h49.07v42.37c6.95,2.87,13.65,4.07,20.59,4.07,24.18,0,39.97-16.76,39.97-41.89s-15.8-41.88-40.7-41.88c-14.84,0-27.04,6.22-37.58,18.43l-25.5-22.46-32.6,35.87,26.74,35.66Z"/>
  <path class="cls-1" d="m131.83,113.22l-26.74-35.66,32.6-35.87-10.64-9.38c11.14-13.66,26.4-23.3,44.91-28.32l.15-.17h-61.51l-55.05,60.8V3.83H0v167.56h55.54v-41.41l12.68-14.12,41.89,55.53h62.89c-14.87-3.51-29.32-9.39-41.17-17.47v-40.69Z"/>
  <path class="cls-1" d="m208.69,0c-11.37,0-21.98,1.36-31.69,4l-34.26,37.69,25.5,22.46c10.53-12.21,22.74-18.43,37.58-18.43,24.9,0,40.7,16.03,40.7,41.88s-15.8,41.89-39.97,41.89c-6.94,0-13.64-1.2-20.59-4.07v-42.37h-49.07v30.16l43.63,58.17h-2.46c10.66,2.52,21.54,3.83,31.84,3.83,54.1,0,93.59-36.14,93.59-87.61S263.99,0,208.69,0Z"/>
  <path class="cls-1" d="m127.04,32.31l10.64,9.38L171.95,4c-18.5,5.02-33.76,14.66-44.91,28.32Z"/>
  <path class="cls-1" d="m131.83,113.22v40.69c11.85,8.09,26.3,13.96,41.17,17.47h2.46l-43.63-58.17Z"/>
</svg>