<?xml version="1.0" encoding="UTF-8"?>
<svg id="Layer_1" data-name="Layer 1" xmlns="http://www.w3.org/2000/svg" viewBox="0 0 243.68 231.69">
  <defs>
    <style>
      .cls-1, .cls-2 {
        stroke-width: 0px;
      }

      .cls-2 {
        fill: #fff;
      }
    </style>
  </defs>
  <rect class="cls-1" width="243.68" height="231.69" rx="51.97" ry="51.97"/>
  <path class="cls-2" d="m150.85,166.93h16.99v30.56h-16.99v-30.56Z"/>
  <path class="cls-2" d="m127.42,165.83h16.99v37.23h22.75v13.18h-39.75v-50.4Z"/>
  <path class="cls-2" d="m41.22,177.78v8.64h21.03v12.82h-21.03v16.13h-16.99v-50.4h40.97v12.82h-23.98Z"/>
  <path class="cls-2" d="m207.05,125.88l-13.98,4.74-4.23-12.48,44.05-14.93,4.23,12.48-13.98,4.74,11.95,35.26-16.1,5.45-11.95-35.26Z"/>
  <path class="cls-2" d="m163.96,148.43h-4.61v12.67h-16.99v-50.4h24.27c14.04,0,22.97,7.34,22.97,19.01,0,7.27-3.46,12.75-9.5,15.84l10.58,15.55h-18.15l-8.57-12.67Zm1.58-24.63h-6.19v11.81h6.19c4.68,0,6.91-2.23,6.91-5.9s-2.23-5.9-6.91-5.9Z"/>
  <path class="cls-2" d="m145.62,58.22c11.67,0,19.01,8.93,19.01,22.97v7.27s19.83,0,19.83,0v16.22s-57.85,0-57.85,0v-23.49c0-14.04,7.35-22.97,19.01-22.97Zm0,17.14c-3.67,0-5.9,2.23-5.9,6.91v6.19s11.81,0,11.81,0v-6.19c0-4.68-2.23-6.91-5.9-6.91Z"/>
  <path class="cls-2" d="m81.15,134.75c0-15.27,12.03-26.35,28.44-26.35s28.44,11.09,28.44,26.35-12.02,26.35-28.44,26.35-28.44-11.09-28.44-26.35Zm39.75,0c0-7.85-5.04-12.6-11.31-12.6s-11.3,4.75-11.3,12.6,5.04,12.6,11.3,12.6,11.31-4.75,11.31-12.6Z"/>
  <path class="cls-2" d="m172.46,193.28c0-15.27,12.03-26.35,28.44-26.35s28.44,11.09,28.44,26.35-12.02,26.35-28.44,26.35-28.44-11.09-28.44-26.35Zm39.75,0c0-7.85-5.04-12.6-11.31-12.6s-11.3,4.75-11.3,12.6,5.04,12.6,11.3,12.6,11.31-4.75,11.31-12.6Z"/>
  <path class="cls-2" d="m66.66,190.48c0-15.27,12.03-26.35,28.44-26.35s28.44,11.09,28.44,26.35-12.02,26.35-28.44,26.35-28.44-11.09-28.44-26.35Zm39.75,0c0-7.85-5.04-12.6-11.31-12.6s-11.3,4.75-11.3,12.6,5.04,12.6,11.3,12.6,11.31-4.75,11.31-12.6Z"/>
</svg>